<svg xmlns="http://www.w3.org/2000/svg" viewBox="0 0 1200 630" width="1200" height="630">
  <defs>
    <linearGradient id="bg" x1="0%" y1="0%" x2="100%" y2="100%">
      <stop offset="0%" stop-color="#0a0b0d"/>
      <stop offset="50%" stop-color="#14161a"/>
      <stop offset="100%" stop-color="#1a1d23"/>
    </linearGradient>
    <linearGradient id="orange" x1="0%" y1="0%" x2="100%" y2="100%">
      <stop offset="0%" stop-color="#ff6b1a"/>
      <stop offset="100%" stop-color="#e55a0e"/>
    </linearGradient>
  </defs>
  <rect width="1200" height="630" fill="url(#bg)"/>

  <!-- Decorative circles -->
  <circle cx="1050" cy="100" r="250" fill="#ff6b1a" opacity="0.05"/>
  <circle cx="100" cy="550" r="200" fill="#ff6b1a" opacity="0.04"/>

  <!-- Gear icon -->
  <g transform="translate(140, 240)">
    <rect x="0" y="0" width="120" height="120" rx="22" fill="url(#orange)"/>
    <g stroke="#fff" stroke-width="5" fill="none" stroke-linecap="round" transform="translate(60, 60)">
      <circle r="24"/>
      <line x1="0" y1="-42" x2="0" y2="-30"/>
      <line x1="0" y1="30" x2="0" y2="42"/>
      <line x1="-42" y1="0" x2="-30" y2="0"/>
      <line x1="30" y1="0" x2="42" y2="0"/>
      <line x1="-30" y1="-30" x2="-20" y2="-20"/>
      <line x1="20" y1="20" x2="30" y2="30"/>
      <line x1="-30" y1="30" x2="-20" y2="20"/>
      <line x1="20" y1="-20" x2="30" y2="-30"/>
    </g>
  </g>

  <!-- Title -->
  <text x="300" y="290" font-family="'Space Grotesk', Arial, sans-serif" font-size="72" font-weight="800" fill="#ffffff" letter-spacing="-2">ENAMAK MAKİNA</text>
  <text x="300" y="360" font-family="Inter, Arial, sans-serif" font-size="32" font-weight="500" fill="#ff6b1a">Kumlama Makinaları İmalatı</text>
  <text x="300" y="410" font-family="Inter, Arial, sans-serif" font-size="22" font-weight="400" fill="#9ca3af">Endüstriyel Kumlama Çözümleri · Bakım · Yedek Parça</text>

  <!-- Bottom line -->
  <rect x="140" y="530" width="300" height="4" fill="url(#orange)"/>
  <text x="140" y="580" font-family="Inter, Arial, sans-serif" font-size="18" font-weight="600" fill="#cbd5e1">enamakmakina.com</text>
  <text x="980" y="580" font-family="Inter, Arial, sans-serif" font-size="18" font-weight="500" fill="#6b7280" text-anchor="start">KONYA · TÜRKİYE</text>
</svg>
