<svg xmlns="http://www.w3.org/2000/svg" viewBox="0 0 1200 630" width="1200" height="630">
  <defs>
    <linearGradient id="bgGrad" x1="0%" y1="0%" x2="100%" y2="100%">
      <stop offset="0%" stop-color="#0a0b0d"/>
      <stop offset="50%" stop-color="#14161a"/>
      <stop offset="100%" stop-color="#1a1d23"/>
    </linearGradient>
    <linearGradient id="blueGrad" x1="0%" y1="0%" x2="100%" y2="100%">
      <stop offset="0%" stop-color="#2563eb"/>
      <stop offset="100%" stop-color="#1e40af"/>
    </linearGradient>
  </defs>
  <rect width="1200" height="630" fill="url(#bgGrad)"/>

  <!-- Decorative -->
  <circle cx="1050" cy="100" r="250" fill="#2563eb" opacity="0.08"/>
  <circle cx="100" cy="550" r="200" fill="#2563eb" opacity="0.05"/>

  <!-- Logo ikonu büyük -->
  <g transform="translate(140, 240)">
    <rect x="0" y="0" width="130" height="130" rx="22" fill="url(#blueGrad)"/>
    <circle cx="65" cy="65" r="42" fill="none" stroke="#ffffff" stroke-width="5"/>
    <g fill="#ffffff">
      <rect x="46" y="40" width="36" height="7" rx="1.2"/>
      <rect x="46" y="61.5" width="28" height="7" rx="1.2"/>
      <rect x="46" y="83" width="36" height="7" rx="1.2"/>
      <rect x="46" y="40" width="7" height="50" rx="1.2"/>
    </g>
  </g>

  <!-- Text -->
  <text x="310" y="300" font-family="'Space Grotesk', Arial, sans-serif" font-size="78" font-weight="800" fill="#ffffff" letter-spacing="-2">ENA-MAK</text>
  <text x="310" y="370" font-family="Inter, Arial, sans-serif" font-size="32" font-weight="500" fill="#60a5fa">Kumlama Teknolojileri</text>
  <text x="310" y="420" font-family="Inter, Arial, sans-serif" font-size="22" font-weight="400" fill="#9ca3af">Endüstriyel Kumlama Makinaları · Bakım · Yedek Parça</text>

  <rect x="140" y="530" width="300" height="4" fill="url(#blueGrad)"/>
  <text x="140" y="580" font-family="Inter, Arial, sans-serif" font-size="18" font-weight="600" fill="#cbd5e1">enamakmakina.com</text>
  <text x="980" y="580" font-family="Inter, Arial, sans-serif" font-size="18" font-weight="500" fill="#6b7280">KONYA · TÜRKİYE</text>
</svg>
